<svg xmlns="http://www.w3.org/2000/svg" xmlns:xlink="http://www.w3.org/1999/xlink" width="375" viewBox="0 0 375 375" height="375" version="1.0"><defs><g id="a"><path d="M 19.71875 0 L 18.640625 -3.578125 L 9.765625 -3.578125 L 8.6875 0 L 0.375 0 L 9.609375 -25.34375 L 19.078125 -25.34375 L 28.328125 0 Z M 11.453125 -9.25 L 16.953125 -9.25 L 14.296875 -18.28125 L 14.140625 -18.28125 Z M 11.453125 -9.25"/></g><g id="b"><path d="M 15.171875 -19.453125 L 15.171875 -14.484375 L 11.046875 -14.484375 L 11.046875 -7.078125 C 11.046875 -6.191406 11.191406 -5.546875 11.484375 -5.140625 C 11.785156 -4.734375 12.328125 -4.53125 13.109375 -4.53125 L 15.171875 -4.53125 L 15.171875 -0.21875 C 14.585938 -0.0195312 13.828125 0.132812 12.890625 0.25 C 11.960938 0.375 11.15625 0.4375 10.46875 0.4375 C 8.300781 0.4375 6.632812 0.046875 5.46875 -0.734375 C 4.300781 -1.523438 3.71875 -2.863281 3.71875 -4.75 L 3.71875 -14.484375 L 1 -14.484375 L 1 -19.453125 L 4.015625 -19.453125 L 5.59375 -25.34375 L 11.046875 -25.34375 L 11.046875 -19.453125 Z M 15.171875 -19.453125"/></g><g id="c"><path d="M 12.265625 -19.890625 C 15.828125 -19.890625 18.546875 -19.054688 20.421875 -17.390625 C 22.304688 -15.722656 23.25 -13.171875 23.25 -9.734375 L 23.25 -8.46875 L 8.65625 -8.46875 C 8.65625 -7.070312 8.96875 -6.015625 9.59375 -5.296875 C 10.21875 -4.585938 11.207031 -4.234375 12.5625 -4.234375 C 13.789062 -4.234375 14.691406 -4.488281 15.265625 -5 C 15.847656 -5.519531 16.140625 -6.210938 16.140625 -7.078125 L 23.25 -7.078125 C 23.25 -4.710938 22.351562 -2.867188 20.5625 -1.546875 C 18.769531 -0.222656 16.15625 0.4375 12.71875 0.4375 C 9.101562 0.4375 6.300781 -0.398438 4.3125 -2.078125 C 2.320312 -3.765625 1.328125 -6.316406 1.328125 -9.734375 C 1.328125 -13.066406 2.296875 -15.59375 4.234375 -17.3125 C 6.171875 -19.03125 8.847656 -19.890625 12.265625 -19.890625 Z M 12.5625 -15.21875 C 10.25 -15.21875 8.957031 -14.125 8.6875 -11.9375 L 15.84375 -11.9375 C 15.84375 -12.945312 15.550781 -13.742188 14.96875 -14.328125 C 14.394531 -14.921875 13.59375 -15.21875 12.5625 -15.21875 Z M 12.5625 -15.21875"/></g><g id="d"><path d="M 2.46875 0 L 2.46875 -26.71875 L 9.796875 -26.71875 L 9.796875 0 Z M 2.46875 0"/></g><g id="e"><path d="M 2.46875 -21.734375 L 2.46875 -26.71875 L 9.796875 -26.71875 L 9.796875 -21.734375 Z M 2.46875 0 L 2.46875 -19.453125 L 9.796875 -19.453125 L 9.796875 0 Z M 2.46875 0"/></g><g id="f"><path d="M 14.03125 -19.9375 C 14.601562 -19.9375 15.109375 -19.867188 15.546875 -19.734375 C 15.992188 -19.597656 16.21875 -19.515625 16.21875 -19.484375 L 16.21875 -13.34375 L 13.859375 -13.34375 C 12.328125 -13.34375 11.222656 -12.945312 10.546875 -12.15625 C 9.878906 -11.375 9.546875 -10.207031 9.546875 -8.65625 L 9.546875 0 L 2.203125 0 L 2.203125 -19.453125 L 8.21875 -19.453125 L 8.6875 -16.5 C 9.132812 -17.632812 9.835938 -18.488281 10.796875 -19.0625 C 11.753906 -19.644531 12.832031 -19.9375 14.03125 -19.9375 Z M 14.03125 -19.9375"/></g><g id="h"><path d="M 16.359375 0 L 15.734375 -2.765625 C 14.304688 -0.628906 12.242188 0.4375 9.546875 0.4375 C 6.910156 0.4375 4.878906 -0.421875 3.453125 -2.140625 C 2.035156 -3.859375 1.328125 -6.398438 1.328125 -9.765625 C 1.328125 -13.109375 2.035156 -15.628906 3.453125 -17.328125 C 4.878906 -19.035156 6.910156 -19.890625 9.546875 -19.890625 C 11.773438 -19.890625 13.59375 -19.140625 15 -17.640625 L 15 -26.71875 L 22.328125 -26.71875 L 22.328125 0 Z M 11.828125 -14.484375 C 9.710938 -14.484375 8.65625 -13.21875 8.65625 -10.6875 L 8.65625 -8.734375 C 8.65625 -6.222656 9.710938 -4.96875 11.828125 -4.96875 C 12.910156 -4.96875 13.71875 -5.347656 14.25 -6.109375 C 14.789062 -6.878906 15.0625 -7.875 15.0625 -9.09375 L 15.0625 -10.3125 C 15.0625 -11.539062 14.789062 -12.539062 14.25 -13.3125 C 13.71875 -14.09375 12.910156 -14.484375 11.828125 -14.484375 Z M 11.828125 -14.484375"/></g><g id="i"><path d="M 6.34375 -14.65625 L 3.828125 -14.65625 L 2.09375 -19.9375 L 2.09375 -25.34375 L 8.109375 -25.34375 L 8.109375 -19.9375 Z M 6.34375 -14.65625"/></g><g id="j"><path d="M 5.96875 0.171875 C 4.457031 0.171875 3.28125 -0.242188 2.4375 -1.078125 C 1.59375 -1.921875 1.144531 -3.0625 1.09375 -4.5 C 1.070312 -4.851562 1.0625 -5.398438 1.0625 -6.140625 C 1.0625 -6.898438 1.070312 -7.453125 1.09375 -7.796875 C 1.132812 -9.222656 1.578125 -10.351562 2.421875 -11.1875 C 3.273438 -12.019531 4.457031 -12.4375 5.96875 -12.4375 C 7 -12.4375 7.867188 -12.25 8.578125 -11.875 C 9.296875 -11.5 9.832031 -11.050781 10.1875 -10.53125 C 10.550781 -10.007812 10.742188 -9.53125 10.765625 -9.09375 L 10.765625 -9.0625 C 10.765625 -8.96875 10.726562 -8.882812 10.65625 -8.8125 C 10.582031 -8.75 10.5 -8.71875 10.40625 -8.71875 L 9.421875 -8.71875 C 9.316406 -8.71875 9.238281 -8.738281 9.1875 -8.78125 C 9.132812 -8.832031 9.082031 -8.925781 9.03125 -9.0625 C 8.851562 -9.601562 8.507812 -10.0625 8 -10.4375 C 7.5 -10.8125 6.820312 -11 5.96875 -11 C 4.988281 -11 4.21875 -10.726562 3.65625 -10.1875 C 3.09375 -9.65625 2.796875 -8.828125 2.765625 -7.703125 C 2.753906 -7.367188 2.75 -6.847656 2.75 -6.140625 C 2.75 -5.453125 2.753906 -4.9375 2.765625 -4.59375 C 2.796875 -3.457031 3.09375 -2.617188 3.65625 -2.078125 C 4.21875 -1.546875 4.988281 -1.28125 5.96875 -1.28125 C 6.96875 -1.28125 7.765625 -1.550781 8.359375 -2.09375 C 8.953125 -2.632812 9.25 -3.445312 9.25 -4.53125 L 9.25 -5.296875 L 6.5625 -5.296875 C 6.445312 -5.296875 6.351562 -5.332031 6.28125 -5.40625 C 6.207031 -5.488281 6.171875 -5.585938 6.171875 -5.703125 L 6.171875 -6.234375 C 6.171875 -6.347656 6.207031 -6.445312 6.28125 -6.53125 C 6.351562 -6.613281 6.445312 -6.65625 6.5625 -6.65625 L 10.484375 -6.65625 C 10.617188 -6.65625 10.722656 -6.613281 10.796875 -6.53125 C 10.867188 -6.457031 10.90625 -6.359375 10.90625 -6.234375 L 10.90625 -4.578125 C 10.90625 -3.628906 10.707031 -2.796875 10.3125 -2.078125 C 9.925781 -1.359375 9.359375 -0.800781 8.609375 -0.40625 C 7.867188 -0.0195312 6.988281 0.171875 5.96875 0.171875 Z M 5.96875 0.171875"/></g><g id="k"><path d="M 0.703125 0 C 0.609375 0 0.523438 -0.03125 0.453125 -0.09375 C 0.378906 -0.164062 0.34375 -0.25 0.34375 -0.34375 L 0.390625 -0.546875 L 4.734375 -11.875 C 4.828125 -12.132812 5.015625 -12.265625 5.296875 -12.265625 L 6.40625 -12.265625 C 6.6875 -12.265625 6.875 -12.132812 6.96875 -11.875 L 11.3125 -0.546875 L 11.34375 -0.34375 C 11.34375 -0.25 11.304688 -0.164062 11.234375 -0.09375 C 11.160156 -0.03125 11.078125 0 10.984375 0 L 10.15625 0 C 10.039062 0 9.941406 -0.03125 9.859375 -0.09375 C 9.785156 -0.15625 9.738281 -0.222656 9.71875 -0.296875 L 8.734375 -2.8125 L 2.9375 -2.8125 L 1.984375 -0.296875 C 1.890625 -0.0976562 1.742188 0 1.546875 0 Z M 3.453125 -4.28125 L 8.25 -4.28125 L 5.84375 -10.5625 Z M 3.453125 -4.28125"/></g><g id="l"><path d="M 1.921875 0 C 1.804688 0 1.710938 -0.0351562 1.640625 -0.109375 C 1.578125 -0.191406 1.546875 -0.289062 1.546875 -0.40625 L 1.546875 -11.859375 C 1.546875 -11.972656 1.578125 -12.066406 1.640625 -12.140625 C 1.710938 -12.222656 1.804688 -12.265625 1.921875 -12.265625 L 2.796875 -12.265625 C 2.921875 -12.265625 3.015625 -12.222656 3.078125 -12.140625 C 3.148438 -12.066406 3.1875 -11.972656 3.1875 -11.859375 L 3.1875 -1.46875 L 9.03125 -1.46875 C 9.164062 -1.46875 9.269531 -1.429688 9.34375 -1.359375 C 9.414062 -1.285156 9.453125 -1.1875 9.453125 -1.0625 L 9.453125 -0.40625 C 9.453125 -0.289062 9.410156 -0.191406 9.328125 -0.109375 C 9.253906 -0.0351562 9.15625 0 9.03125 0 Z M 1.921875 0"/></g><g id="m"><path d="M 1.921875 0 C 1.804688 0 1.710938 -0.0351562 1.640625 -0.109375 C 1.578125 -0.191406 1.546875 -0.289062 1.546875 -0.40625 L 1.546875 -11.84375 C 1.546875 -11.96875 1.578125 -12.066406 1.640625 -12.140625 C 1.710938 -12.222656 1.804688 -12.265625 1.921875 -12.265625 L 9.125 -12.265625 C 9.25 -12.265625 9.347656 -12.222656 9.421875 -12.140625 C 9.503906 -12.066406 9.546875 -11.96875 9.546875 -11.84375 L 9.546875 -11.203125 C 9.546875 -11.085938 9.503906 -10.992188 9.421875 -10.921875 C 9.347656 -10.859375 9.25 -10.828125 9.125 -10.828125 L 3.15625 -10.828125 L 3.15625 -6.921875 L 8.734375 -6.921875 C 8.867188 -6.921875 8.972656 -6.878906 9.046875 -6.796875 C 9.117188 -6.722656 9.15625 -6.625 9.15625 -6.5 L 9.15625 -5.90625 C 9.15625 -5.789062 9.117188 -5.691406 9.046875 -5.609375 C 8.972656 -5.535156 8.867188 -5.5 8.734375 -5.5 L 3.15625 -5.5 L 3.15625 -1.453125 L 9.265625 -1.453125 C 9.390625 -1.453125 9.488281 -1.410156 9.5625 -1.328125 C 9.644531 -1.253906 9.6875 -1.15625 9.6875 -1.03125 L 9.6875 -0.40625 C 9.6875 -0.289062 9.644531 -0.191406 9.5625 -0.109375 C 9.476562 -0.0351562 9.378906 0 9.265625 0 Z M 1.921875 0"/></g><g id="n"><path d="M 1.921875 0 C 1.804688 0 1.710938 -0.0351562 1.640625 -0.109375 C 1.578125 -0.191406 1.546875 -0.289062 1.546875 -0.40625 L 1.546875 -11.84375 C 1.546875 -11.96875 1.578125 -12.066406 1.640625 -12.140625 C 1.710938 -12.222656 1.804688 -12.265625 1.921875 -12.265625 L 6.203125 -12.265625 C 7.535156 -12.265625 8.578125 -11.953125 9.328125 -11.328125 C 10.078125 -10.703125 10.453125 -9.789062 10.453125 -8.59375 C 10.453125 -7.707031 10.226562 -6.976562 9.78125 -6.40625 C 9.34375 -5.832031 8.726562 -5.4375 7.9375 -5.21875 L 10.625 -0.546875 C 10.664062 -0.472656 10.6875 -0.40625 10.6875 -0.34375 C 10.6875 -0.25 10.648438 -0.164062 10.578125 -0.09375 C 10.503906 -0.03125 10.421875 0 10.328125 0 L 9.5625 0 C 9.382812 0 9.242188 -0.0390625 9.140625 -0.125 C 9.046875 -0.207031 8.957031 -0.320312 8.875 -0.46875 L 6.3125 -4.953125 L 3.1875 -4.953125 L 3.1875 -0.40625 C 3.1875 -0.289062 3.144531 -0.191406 3.0625 -0.109375 C 2.976562 -0.0351562 2.878906 0 2.765625 0 Z M 6.125 -6.390625 C 7.894531 -6.390625 8.78125 -7.132812 8.78125 -8.625 C 8.78125 -10.101562 7.894531 -10.84375 6.125 -10.84375 L 3.1875 -10.84375 L 3.1875 -6.390625 Z M 6.125 -6.390625"/></g><g id="o"><path d="M 1.921875 0 C 1.804688 0 1.710938 -0.0351562 1.640625 -0.109375 C 1.578125 -0.191406 1.546875 -0.289062 1.546875 -0.40625 L 1.546875 -11.859375 C 1.546875 -11.972656 1.578125 -12.066406 1.640625 -12.140625 C 1.710938 -12.222656 1.804688 -12.265625 1.921875 -12.265625 L 2.796875 -12.265625 C 2.929688 -12.265625 3.03125 -12.226562 3.09375 -12.15625 C 3.164062 -12.082031 3.203125 -11.984375 3.203125 -11.859375 L 3.203125 -0.40625 C 3.203125 -0.289062 3.164062 -0.191406 3.09375 -0.109375 C 3.019531 -0.0351562 2.921875 0 2.796875 0 Z M 1.921875 0"/></g><g id="q"><path d="M 1.609375 -4.546875 C 1.492188 -4.546875 1.394531 -4.582031 1.3125 -4.65625 C 1.238281 -4.726562 1.203125 -4.820312 1.203125 -4.9375 L 1.203125 -5.5625 C 1.203125 -5.6875 1.238281 -5.785156 1.3125 -5.859375 C 1.394531 -5.929688 1.492188 -5.96875 1.609375 -5.96875 L 6.859375 -5.96875 C 6.984375 -5.96875 7.082031 -5.929688 7.15625 -5.859375 C 7.226562 -5.785156 7.265625 -5.6875 7.265625 -5.5625 L 7.265625 -4.9375 C 7.265625 -4.820312 7.226562 -4.726562 7.15625 -4.65625 C 7.082031 -4.582031 6.984375 -4.546875 6.859375 -4.546875 Z M 1.609375 -4.546875"/></g><g id="r"><path d="M 4.625 0 C 4.507812 0 4.410156 -0.0351562 4.328125 -0.109375 C 4.253906 -0.191406 4.21875 -0.289062 4.21875 -0.40625 L 4.21875 -10.75 L 0.84375 -10.75 C 0.726562 -10.75 0.628906 -10.785156 0.546875 -10.859375 C 0.472656 -10.941406 0.4375 -11.039062 0.4375 -11.15625 L 0.4375 -11.84375 C 0.4375 -11.96875 0.472656 -12.066406 0.546875 -12.140625 C 0.628906 -12.222656 0.726562 -12.265625 0.84375 -12.265625 L 9.25 -12.265625 C 9.375 -12.265625 9.472656 -12.222656 9.546875 -12.140625 C 9.617188 -12.066406 9.65625 -11.96875 9.65625 -11.84375 L 9.65625 -11.15625 C 9.65625 -11.039062 9.613281 -10.941406 9.53125 -10.859375 C 9.457031 -10.785156 9.363281 -10.75 9.25 -10.75 L 5.890625 -10.75 L 5.890625 -0.40625 C 5.890625 -0.289062 5.847656 -0.191406 5.765625 -0.109375 C 5.679688 -0.0351562 5.582031 0 5.46875 0 Z M 4.625 0"/></g></defs><path fill="#FFF" d="M-37.5 -37.5H412.5V412.5H-37.5z"/><path fill="#FFF" d="M-37.5 -37.5H412.5V412.5H-37.5z"/><g><use x="133.38" y="180.656" xmlns:xlink="http://www.w3.org/1999/xlink" xlink:href="#a" xlink:type="simple" xlink:actuate="onLoad" xlink:show="embed"/></g><g><use x="160.93" y="180.656" xmlns:xlink="http://www.w3.org/1999/xlink" xlink:href="#b" xlink:type="simple" xlink:actuate="onLoad" xlink:show="embed"/></g><g><use x="176.179" y="180.656" xmlns:xlink="http://www.w3.org/1999/xlink" xlink:href="#c" xlink:type="simple" xlink:actuate="onLoad" xlink:show="embed"/></g><g><use x="199.641" y="180.656" xmlns:xlink="http://www.w3.org/1999/xlink" xlink:href="#d" xlink:type="simple" xlink:actuate="onLoad" xlink:show="embed"/></g><g><use x="210.801" y="180.656" xmlns:xlink="http://www.w3.org/1999/xlink" xlink:href="#e" xlink:type="simple" xlink:actuate="onLoad" xlink:show="embed"/></g><g><use x="221.961" y="180.656" xmlns:xlink="http://www.w3.org/1999/xlink" xlink:href="#c" xlink:type="simple" xlink:actuate="onLoad" xlink:show="embed"/></g><g><use x="245.423" y="180.656" xmlns:xlink="http://www.w3.org/1999/xlink" xlink:href="#f" xlink:type="simple" xlink:actuate="onLoad" xlink:show="embed"/></g><g><use x="260.671" y="180.656" xmlns:xlink="http://www.w3.org/1999/xlink" xlink:href="#g" xlink:type="simple" xlink:actuate="onLoad" xlink:show="embed"/></g><g><use x="271.831" y="180.656" xmlns:xlink="http://www.w3.org/1999/xlink" xlink:href="#h" xlink:type="simple" xlink:actuate="onLoad" xlink:show="embed"/></g><g><use x="295.293" y="180.656" xmlns:xlink="http://www.w3.org/1999/xlink" xlink:href="#i" xlink:type="simple" xlink:actuate="onLoad" xlink:show="embed"/></g><g><use x="304.427" y="180.656" xmlns:xlink="http://www.w3.org/1999/xlink" xlink:href="#a" xlink:type="simple" xlink:actuate="onLoad" xlink:show="embed"/></g><g><use x="331.978" y="180.656" xmlns:xlink="http://www.w3.org/1999/xlink" xlink:href="#f" xlink:type="simple" xlink:actuate="onLoad" xlink:show="embed"/></g><g><use x="347.226" y="180.656" xmlns:xlink="http://www.w3.org/1999/xlink" xlink:href="#b" xlink:type="simple" xlink:actuate="onLoad" xlink:show="embed"/></g><g><use x="362.469" y="180.656" xmlns:xlink="http://www.w3.org/1999/xlink" xlink:href="#g" xlink:type="simple" xlink:actuate="onLoad" xlink:show="embed"/></g><g fill="#545454"><use x="133.38" y="218.555" xmlns:xlink="http://www.w3.org/1999/xlink" xlink:href="#j" xlink:type="simple" xlink:actuate="onLoad" xlink:show="embed"/></g><g fill="#545454"><use x="147.377" y="218.555" xmlns:xlink="http://www.w3.org/1999/xlink" xlink:href="#k" xlink:type="simple" xlink:actuate="onLoad" xlink:show="embed"/></g><g fill="#545454"><use x="161.181" y="218.555" xmlns:xlink="http://www.w3.org/1999/xlink" xlink:href="#l" xlink:type="simple" xlink:actuate="onLoad" xlink:show="embed"/></g><g fill="#545454"><use x="173.111" y="218.555" xmlns:xlink="http://www.w3.org/1999/xlink" xlink:href="#m" xlink:type="simple" xlink:actuate="onLoad" xlink:show="embed"/></g><g fill="#545454"><use x="185.811" y="218.555" xmlns:xlink="http://www.w3.org/1999/xlink" xlink:href="#n" xlink:type="simple" xlink:actuate="onLoad" xlink:show="embed"/></g><g fill="#545454"><use x="199.37" y="218.555" xmlns:xlink="http://www.w3.org/1999/xlink" xlink:href="#o" xlink:type="simple" xlink:actuate="onLoad" xlink:show="embed"/></g><g fill="#545454"><use x="206.22" y="218.555" xmlns:xlink="http://www.w3.org/1999/xlink" xlink:href="#m" xlink:type="simple" xlink:actuate="onLoad" xlink:show="embed"/></g><g fill="#545454"><use x="218.921" y="218.555" xmlns:xlink="http://www.w3.org/1999/xlink" xlink:href="#p" xlink:type="simple" xlink:actuate="onLoad" xlink:show="embed"/></g><g fill="#545454"><use x="225.333" y="218.555" xmlns:xlink="http://www.w3.org/1999/xlink" xlink:href="#q" xlink:type="simple" xlink:actuate="onLoad" xlink:show="embed"/></g><g fill="#545454"><use x="235.914" y="218.555" xmlns:xlink="http://www.w3.org/1999/xlink" xlink:href="#p" xlink:type="simple" xlink:actuate="onLoad" xlink:show="embed"/></g><g fill="#545454"><use x="242.326" y="218.555" xmlns:xlink="http://www.w3.org/1999/xlink" xlink:href="#k" xlink:type="simple" xlink:actuate="onLoad" xlink:show="embed"/></g><g fill="#545454"><use x="256.13" y="218.555" xmlns:xlink="http://www.w3.org/1999/xlink" xlink:href="#r" xlink:type="simple" xlink:actuate="onLoad" xlink:show="embed"/></g><g fill="#545454"><use x="268.34" y="218.555" xmlns:xlink="http://www.w3.org/1999/xlink" xlink:href="#m" xlink:type="simple" xlink:actuate="onLoad" xlink:show="embed"/></g><g fill="#545454"><use x="281.041" y="218.555" xmlns:xlink="http://www.w3.org/1999/xlink" xlink:href="#l" xlink:type="simple" xlink:actuate="onLoad" xlink:show="embed"/></g><g fill="#545454"><use x="292.97" y="218.555" xmlns:xlink="http://www.w3.org/1999/xlink" xlink:href="#o" xlink:type="simple" xlink:actuate="onLoad" xlink:show="embed"/></g><g fill="#545454"><use x="299.82" y="218.555" xmlns:xlink="http://www.w3.org/1999/xlink" xlink:href="#m" xlink:type="simple" xlink:actuate="onLoad" xlink:show="embed"/></g><g fill="#545454"><use x="312.521" y="218.555" xmlns:xlink="http://www.w3.org/1999/xlink" xlink:href="#n" xlink:type="simple" xlink:actuate="onLoad" xlink:show="embed"/></g><g fill="#545454"><use x="326.076" y="218.555" xmlns:xlink="http://www.w3.org/1999/xlink" xlink:href="#p" xlink:type="simple" xlink:actuate="onLoad" xlink:show="embed"/></g><path fill="#F4B324" d="M 18.992188 135.109375 L 117.457031 135.109375 L 117.457031 233.574219 L 18.992188 233.574219 Z M 18.992188 135.109375"/></svg>